<svg width="80" height="34" viewBox="0 0 80 34" fill="none" xmlns="http://www.w3.org/2000/svg">
<g clip-path="url(#clip0_6278_7555)">
<path d="M23 21.08C22.24 21.08 21.56 21.38 21.04 21.85L13.91 17.7C13.96 17.47 14 17.24 14 17C14 16.76 13.96 16.53 13.91 16.3L20.96 12.19C21.5 12.69 22.21 13 23 13C24.66 13 26 11.66 26 10C26 8.34 24.66 7 23 7C21.34 7 20 8.34 20 10C20 10.24 20.04 10.47 20.09 10.7L13.04 14.81C12.5 14.31 11.79 14 11 14C9.34 14 8 15.34 8 17C8 18.66 9.34 20 11 20C11.79 20 12.5 19.69 13.04 19.19L20.16 23.35C20.11 23.56 20.08 23.78 20.08 24C20.08 25.61 21.39 26.92 23 26.92C24.61 26.92 25.92 25.61 25.92 24C25.92 22.39 24.61 21.08 23 21.08Z" fill="black"/>
</g>
<path d="M34.2344 18.7969C34.2708 19.4479 34.4245 19.9766 34.6953 20.3828C35.2109 21.1432 36.1198 21.5234 37.4219 21.5234C38.0052 21.5234 38.5365 21.4401 39.0156 21.2734C39.9427 20.9505 40.4062 20.3724 40.4062 19.5391C40.4062 18.9141 40.2109 18.4688 39.8203 18.2031C39.4245 17.9427 38.8047 17.7161 37.9609 17.5234L36.4062 17.1719C35.3906 16.9427 34.6719 16.6901 34.25 16.4141C33.5208 15.9349 33.1562 15.2188 33.1562 14.2656C33.1562 13.2344 33.513 12.388 34.2266 11.7266C34.9401 11.0651 35.9505 10.7344 37.2578 10.7344C38.4609 10.7344 39.4818 11.026 40.3203 11.6094C41.1641 12.1875 41.5859 13.1146 41.5859 14.3906H40.125C40.0469 13.776 39.8802 13.3047 39.625 12.9766C39.151 12.3776 38.3464 12.0781 37.2109 12.0781C36.2943 12.0781 35.6354 12.2708 35.2344 12.6562C34.8333 13.0417 34.6328 13.4896 34.6328 14C34.6328 14.5625 34.8672 14.974 35.3359 15.2344C35.6432 15.401 36.3385 15.6094 37.4219 15.8594L39.0312 16.2266C39.8073 16.4036 40.4062 16.6458 40.8281 16.9531C41.5573 17.4896 41.9219 18.2682 41.9219 19.2891C41.9219 20.5599 41.4583 21.4688 40.5312 22.0156C39.6094 22.5625 38.5365 22.8359 37.3125 22.8359C35.8854 22.8359 34.7682 22.4714 33.9609 21.7422C33.1536 21.0182 32.7578 20.0365 32.7734 18.7969H34.2344ZM43.7031 10.9844H45.1094V15.2656C45.4427 14.8438 45.7422 14.5469 46.0078 14.375C46.4609 14.0781 47.026 13.9297 47.7031 13.9297C48.9167 13.9297 49.7396 14.3542 50.1719 15.2031C50.4062 15.6667 50.5234 16.3099 50.5234 17.1328V22.5H49.0781V17.2266C49.0781 16.612 49 16.1615 48.8438 15.875C48.5885 15.4167 48.1094 15.1875 47.4062 15.1875C46.8229 15.1875 46.2943 15.388 45.8203 15.7891C45.3464 16.1901 45.1094 16.9479 45.1094 18.0625V22.5H43.7031V10.9844ZM53.6875 20.2734C53.6875 20.6797 53.8359 21 54.1328 21.2344C54.4297 21.4688 54.7812 21.5859 55.1875 21.5859C55.6823 21.5859 56.1615 21.4714 56.625 21.2422C57.4062 20.862 57.7969 20.2396 57.7969 19.375V18.2422C57.625 18.3516 57.4036 18.4427 57.1328 18.5156C56.862 18.5885 56.5964 18.6406 56.3359 18.6719L55.4844 18.7812C54.974 18.849 54.5911 18.9557 54.3359 19.1016C53.9036 19.3464 53.6875 19.737 53.6875 20.2734ZM57.0938 17.4297C57.4167 17.388 57.6328 17.2526 57.7422 17.0234C57.8047 16.8984 57.8359 16.7188 57.8359 16.4844C57.8359 16.0052 57.6641 15.6589 57.3203 15.4453C56.9818 15.2266 56.4948 15.1172 55.8594 15.1172C55.125 15.1172 54.6042 15.3151 54.2969 15.7109C54.125 15.9297 54.013 16.2552 53.9609 16.6875H52.6484C52.6745 15.6562 53.0078 14.9401 53.6484 14.5391C54.2943 14.1328 55.0417 13.9297 55.8906 13.9297C56.875 13.9297 57.6745 14.1172 58.2891 14.4922C58.8984 14.8672 59.2031 15.4505 59.2031 16.2422V21.0625C59.2031 21.2083 59.2318 21.3255 59.2891 21.4141C59.3516 21.5026 59.4792 21.5469 59.6719 21.5469C59.7344 21.5469 59.8047 21.5443 59.8828 21.5391C59.9609 21.5286 60.0443 21.5156 60.1328 21.5V22.5391C59.9141 22.6016 59.7474 22.6406 59.6328 22.6562C59.5182 22.6719 59.362 22.6797 59.1641 22.6797C58.6797 22.6797 58.3281 22.5078 58.1094 22.1641C57.9948 21.9818 57.9141 21.724 57.8672 21.3906C57.5807 21.7656 57.1693 22.0911 56.6328 22.3672C56.0964 22.6432 55.5052 22.7812 54.8594 22.7812C54.0833 22.7812 53.4479 22.5469 52.9531 22.0781C52.4635 21.6042 52.2188 21.013 52.2188 20.3047C52.2188 19.5286 52.4609 18.9271 52.9453 18.5C53.4297 18.0729 54.0651 17.8099 54.8516 17.7109L57.0938 17.4297ZM61.5547 14.1328H62.8906V15.5781C63 15.2969 63.2682 14.9557 63.6953 14.5547C64.1224 14.1484 64.6146 13.9453 65.1719 13.9453C65.1979 13.9453 65.2422 13.9479 65.3047 13.9531C65.3672 13.9583 65.474 13.9688 65.625 13.9844V15.4688C65.5417 15.4531 65.4635 15.4427 65.3906 15.4375C65.3229 15.4323 65.2474 15.4297 65.1641 15.4297C64.4557 15.4297 63.9115 15.6589 63.5312 16.1172C63.151 16.5703 62.9609 17.0938 62.9609 17.6875V22.5H61.5547V14.1328ZM70.3281 13.9453C70.9219 13.9453 71.4974 14.0859 72.0547 14.3672C72.612 14.6432 73.0365 15.0026 73.3281 15.4453C73.6094 15.8672 73.7969 16.3594 73.8906 16.9219C73.974 17.3073 74.0156 17.9219 74.0156 18.7656H67.8828C67.9089 19.6146 68.1094 20.2969 68.4844 20.8125C68.8594 21.3229 69.4401 21.5781 70.2266 21.5781C70.9609 21.5781 71.5469 21.3359 71.9844 20.8516C72.2344 20.5703 72.4115 20.2448 72.5156 19.875H73.8984C73.862 20.1823 73.7396 20.526 73.5312 20.9062C73.3281 21.2812 73.099 21.5885 72.8438 21.8281C72.4167 22.2448 71.888 22.526 71.2578 22.6719C70.9193 22.7552 70.5365 22.7969 70.1094 22.7969C69.0677 22.7969 68.1849 22.4193 67.4609 21.6641C66.737 20.9036 66.375 19.8411 66.375 18.4766C66.375 17.1328 66.7396 16.0417 67.4688 15.2031C68.1979 14.3646 69.151 13.9453 70.3281 13.9453ZM72.5703 17.6484C72.513 17.0391 72.3802 16.5521 72.1719 16.1875C71.7865 15.5104 71.1432 15.1719 70.2422 15.1719C69.5964 15.1719 69.0547 15.4062 68.6172 15.875C68.1797 16.3385 67.9479 16.9297 67.9219 17.6484H72.5703Z" fill="black"/>
<defs>
<clipPath id="clip0_6278_7555">
<rect width="24" height="24" fill="white" transform="translate(5 5)"/>
</clipPath>
</defs>
</svg>
