<svg width="24" height="24" viewBox="0 0 24 24" fill="none" xmlns="http://www.w3.org/2000/svg">
<path d="M11.885 20C11.9517 20 12.0183 19.9833 12.085 19.95C12.1517 19.9167 12.2017 19.8833 12.235 19.85L20.435 11.65C20.635 11.45 20.7808 11.225 20.8725 10.975C20.9642 10.725 21.01 10.475 21.01 10.225C21.01 9.95833 20.9642 9.70417 20.8725 9.4625C20.7808 9.22083 20.635 9.00833 20.435 8.825L16.185 4.575C16.0017 4.375 15.7892 4.22917 15.5475 4.1375C15.3058 4.04583 15.0517 4 14.785 4C14.535 4 14.285 4.04583 14.035 4.1375C13.785 4.22917 13.56 4.375 13.36 4.575L13.085 4.85L14.935 6.725C15.185 6.95833 15.3683 7.225 15.485 7.525C15.6017 7.825 15.66 8.14167 15.66 8.475C15.66 9.175 15.4225 9.7625 14.9475 10.2375C14.4725 10.7125 13.885 10.95 13.185 10.95C12.8517 10.95 12.5308 10.8917 12.2225 10.775C11.9142 10.6583 11.6433 10.4833 11.41 10.25L9.535 8.4L5.16 12.775C5.11 12.825 5.0725 12.8792 5.0475 12.9375C5.0225 12.9958 5.01 13.0583 5.01 13.125C5.01 13.2583 5.06 13.3792 5.16 13.4875C5.26 13.5958 5.37667 13.65 5.51 13.65C5.57667 13.65 5.64333 13.6333 5.71 13.6C5.77667 13.5667 5.82667 13.5333 5.86 13.5L9.26 10.1L10.66 11.5L7.285 14.9C7.235 14.95 7.1975 15.0042 7.1725 15.0625C7.1475 15.1208 7.135 15.1833 7.135 15.25C7.135 15.3833 7.185 15.5 7.285 15.6C7.385 15.7 7.50167 15.75 7.635 15.75C7.70167 15.75 7.76833 15.7333 7.835 15.7C7.90167 15.6667 7.95167 15.6333 7.985 15.6L11.385 12.225L12.785 13.625L9.41 17.025C9.36 17.0583 9.3225 17.1083 9.2975 17.175C9.2725 17.2417 9.26 17.3083 9.26 17.375C9.26 17.5083 9.31 17.625 9.41 17.725C9.51 17.825 9.62667 17.875 9.76 17.875C9.82667 17.875 9.88917 17.8625 9.9475 17.8375C10.0058 17.8125 10.06 17.775 10.11 17.725L13.51 14.35L14.91 15.75L11.51 19.15C11.46 19.2 11.4225 19.2542 11.3975 19.3125C11.3725 19.3708 11.36 19.4333 11.36 19.5C11.36 19.6333 11.4142 19.75 11.5225 19.85C11.6308 19.95 11.7517 20 11.885 20ZM11.86 22C11.2433 22 10.6975 21.7958 10.2225 21.3875C9.7475 20.9792 9.46833 20.4667 9.385 19.85C8.81833 19.7667 8.34333 19.5333 7.96 19.15C7.57667 18.7667 7.34333 18.2917 7.26 17.725C6.69333 17.6417 6.2225 17.4042 5.8475 17.0125C5.4725 16.6208 5.24333 16.15 5.16 15.6C4.52667 15.5167 4.01 15.2417 3.61 14.775C3.21 14.3083 3.01 13.7583 3.01 13.125C3.01 12.7917 3.0725 12.4708 3.1975 12.1625C3.3225 11.8542 3.50167 11.5833 3.735 11.35L9.535 5.575L12.81 8.85C12.8433 8.9 12.8933 8.9375 12.96 8.9625C13.0267 8.9875 13.0933 9 13.16 9C13.31 9 13.435 8.95417 13.535 8.8625C13.635 8.77083 13.685 8.65 13.685 8.5C13.685 8.43333 13.6725 8.36667 13.6475 8.3C13.6225 8.23333 13.585 8.18333 13.535 8.15L9.96 4.575C9.77667 4.375 9.56417 4.22917 9.3225 4.1375C9.08083 4.04583 8.82667 4 8.56 4C8.31 4 8.06 4.04583 7.81 4.1375C7.56 4.22917 7.335 4.375 7.135 4.575L3.61 8.125C3.46 8.275 3.335 8.45 3.235 8.65C3.135 8.85 3.06833 9.05 3.035 9.25C3.00167 9.45 3.00167 9.65417 3.035 9.8625C3.06833 10.0708 3.135 10.2667 3.235 10.45L1.785 11.9C1.50167 11.5167 1.29333 11.0958 1.16 10.6375C1.02667 10.1792 0.976667 9.71667 1.01 9.25C1.04333 8.78333 1.16 8.32917 1.36 7.8875C1.56 7.44583 1.835 7.05 2.185 6.7L5.71 3.175C6.11 2.79167 6.55583 2.5 7.0475 2.3C7.53917 2.1 8.04333 2 8.56 2C9.07667 2 9.58083 2.1 10.0725 2.3C10.5642 2.5 11.0017 2.79167 11.385 3.175L11.66 3.45L11.935 3.175C12.335 2.79167 12.7808 2.5 13.2725 2.3C13.7642 2.1 14.2683 2 14.785 2C15.3017 2 15.8058 2.1 16.2975 2.3C16.7892 2.5 17.2267 2.79167 17.61 3.175L21.835 7.4C22.2183 7.78333 22.51 8.225 22.71 8.725C22.91 9.225 23.01 9.73333 23.01 10.25C23.01 10.7667 22.91 11.2708 22.71 11.7625C22.51 12.2542 22.2183 12.6917 21.835 13.075L13.635 21.25C13.4017 21.4833 13.1308 21.6667 12.8225 21.8C12.5142 21.9333 12.1933 22 11.86 22Z" fill="black"/>
</svg>
