<svg width="24" height="24" viewBox="0 0 24 24" fill="none" xmlns="http://www.w3.org/2000/svg">
<path fill-rule="evenodd" clip-rule="evenodd" d="M1.53219 8.10513L1 10.5L2 14L2.00071 14.0003C2.00015 14.3705 2 14.7663 2 15.1894C2 16.1287 2.73476 17.5511 4.64236 18.8534C6.47443 20.1041 9.07983 21 12 21C14.9202 21 17.5256 20.1041 19.3576 18.8534C21.2652 17.5511 22 16.1287 22 15.1894C22 14.1208 21.9949 13.2406 21.9817 12.516L22 12.5L22.9283 8.32271C23.91 8.4572 24 10.0527 24 15.1894C24 18.9508 18.6274 23 12 23C5.37258 23 0 18.9508 0 15.1894C0 10.1973 0 8.3958 0.701212 8.06042C0.909922 7.9606 1.18075 7.99066 1.53219 8.10513ZM0.8582 9.99019C0.83092 9.98594 0.815725 9.98171 0.814947 9.98065C0.81417 9.9796 0.827809 9.98172 0.8582 9.99019ZM22.8619 10.3073C22.8615 10.3078 22.8523 10.3095 22.8355 10.311C22.8539 10.3075 22.8623 10.3068 22.8619 10.3073Z" fill="black"/>
<path fill-rule="evenodd" clip-rule="evenodd" d="M19.2853 13.764C21.078 12.4194 22 10.7146 22 9C22 7.28537 21.078 5.58058 19.2853 4.23604C17.4919 2.89104 14.9228 2 12 2C9.07719 2 6.50806 2.89104 4.71472 4.23604C2.922 5.58058 2 7.28537 2 9C2 10.7146 2.922 12.4194 4.71472 13.764C6.50806 15.109 9.07719 16 12 16C14.9228 16 17.4919 15.109 19.2853 13.764ZM12 18C18.6274 18 24 13.9706 24 9C24 4.02944 18.6274 0 12 0C5.37258 0 0 4.02944 0 9C0 13.9706 5.37258 18 12 18Z" fill="black"/>
</svg>
