<svg width="24" height="24" viewBox="0 0 24 24" fill="none" xmlns="http://www.w3.org/2000/svg">
<g style="mix-blend-mode:multiply">
<mask id="path-1-inside-1_1964_18298" fill="white">
<path fill-rule="evenodd" clip-rule="evenodd" d="M0 11.4444C0 11.4444 0 11.4444 0 11.4444C1.36259e-05 10.0944 2.46244 9 5.5 9C8.53756 9 11 10.0944 11 11.4444C11 11.4444 11 11.4444 11 11.4444V21.2222C11 21.2222 11 21.2222 11 21.2222C11 22.5723 8.53757 23.6667 5.5 23.6667C2.46243 23.6667 0 22.5723 0 21.2222C0 21.2222 0 21.2222 0 21.2222V11.4444Z"/>
</mask>
<path d="M0 11.4444L-2 11.4444V11.4444H0ZM11 11.4444H13V11.4444L11 11.4444ZM-2 11.4444V11.4444C-2 11.4444 -2 11.4444 -2 11.4444C-2 11.4444 -2 11.4444 -2 11.4444V11.4444C-2 11.4444 -2 11.4444 -2 11.4444C-2 11.4444 -2 11.4444 -2 11.4444C-2 11.4444 -2 11.4444 -2 11.4444C-2 11.4444 -2 11.4444 -2 11.4444V11.4444V11.4444V11.4444C-2 11.4444 -2 11.4444 -2 11.4444C-2 11.4444 -2 11.4444 -2 11.4444C-2 11.4444 -2 11.4444 -2 11.4444C-2 11.4444 -2 11.4444 -2 11.4444C-2 11.4444 -2 11.4444 -2 11.4444C-2 11.4444 -2 11.4444 -2 11.4444C-2 11.4444 -2 11.4444 -2 11.4444C-2 11.4444 -2 11.4444 -2 11.4444C-2 11.4444 -2 11.4444 -2 11.4444C-2 11.4444 -2 11.4444 -2 11.4444C-2 11.4444 -2 11.4444 -2 11.4444C-2 11.4444 -2 11.4444 -2 11.4444C-2 11.4444 -2 11.4444 -2 11.4444C-2 11.4444 -2 11.4444 -2 11.4444C-2 11.4444 -2 11.4444 -2 11.4444C-2 11.4444 -2 11.4444 -2 11.4444C-2 11.4444 -2 11.4444 -2 11.4444C-2 11.4444 -2 11.4444 -2 11.4444C-2 11.4444 -2 11.4444 -2 11.4444C-2 11.4444 -2 11.4444 -2 11.4444C-2 11.4444 -2 11.4444 -2 11.4444C-2 11.4444 -2 11.4444 -2 11.4444C-2 11.4444 -2 11.4444 -2 11.4444C-2 11.4444 -2 11.4444 -2 11.4444C-2 11.4444 -2 11.4444 -2 11.4444V11.4444V11.4444V11.4444C-2 11.4444 -2 11.4444 -2 11.4444C-2 11.4444 -2 11.4444 -2 11.4444C-2 11.4444 -2 11.4444 -2 11.4444C-2 11.4444 -2 11.4444 -2 11.4444V11.4444C-2 11.4444 -2 11.4444 -2 11.4444C-2 11.4444 -2 11.4444 -2 11.4444V11.4444H2V11.4444C2 11.4444 2 11.4444 2 11.4444C2 11.4444 2 11.4444 2 11.4444V11.4444C2 11.4444 2 11.4444 2 11.4444C2 11.4444 2 11.4444 2 11.4444C2 11.4444 2 11.4444 2 11.4444C2 11.4444 2 11.4444 2 11.4444V11.4444V11.4444V11.4444C2 11.4444 2 11.4444 2 11.4444C2 11.4444 2 11.4444 2 11.4444C2 11.4444 2 11.4444 2 11.4444C2 11.4444 2 11.4444 2 11.4444C2 11.4444 2 11.4444 2 11.4444C2 11.4444 2 11.4444 2 11.4444C2 11.4444 2 11.4444 2 11.4444C2 11.4444 2 11.4444 2 11.4444C2 11.4444 2 11.4444 2 11.4444C2 11.4444 2 11.4444 2 11.4444C2 11.4444 2 11.4444 2 11.4444C2 11.4444 2 11.4444 2 11.4444C2 11.4444 2 11.4444 2 11.4444C2 11.4444 2 11.4444 2 11.4444C2 11.4444 2 11.4444 2 11.4444C2 11.4444 2 11.4444 2 11.4444C2 11.4444 2 11.4444 2 11.4444C2 11.4444 2 11.4444 2 11.4444C2 11.4444 2 11.4444 2 11.4444C2 11.4444 2 11.4444 2 11.4444C2 11.4444 2 11.4444 2 11.4444C2 11.4444 2 11.4444 2 11.4444C2 11.4444 2 11.4444 2 11.4444C2 11.4444 2 11.4444 2 11.4444C2 11.4444 2 11.4444 2 11.4444V11.4444V11.4444V11.4444C2 11.4444 2 11.4444 2 11.4444C2 11.4444 2 11.4444 2 11.4444C2 11.4444 2 11.4444 2 11.4444C2 11.4444 2 11.4444 2 11.4444V11.4444C2 11.4444 2 11.4444 2 11.4444C2 11.4444 2 11.4444 2 11.4444V11.4444H-2ZM5.5 7C3.76837 7 2.10451 7.30795 0.798647 7.88833C0.148239 8.1774 -0.501925 8.57341 -1.01656 9.11417C-1.541 9.66524 -1.99999 10.4561 -2 11.4444L2 11.4445C2 11.7577 1.84882 11.9055 1.88101 11.8717C1.92301 11.8276 2.0783 11.6969 2.4232 11.5436C3.10794 11.2393 4.19407 11 5.5 11V7ZM13 11.4444C13 10.4561 12.541 9.66524 12.0166 9.11417C11.5019 8.57341 10.8518 8.1774 10.2014 7.88833C8.89549 7.30795 7.23163 7 5.5 7V11C6.80593 11 7.89206 11.2393 8.57681 11.5436C8.9217 11.6969 9.07699 11.8276 9.11899 11.8717C9.15118 11.9055 9 11.7577 9 11.4445L13 11.4444ZM13 11.4444V11.4444C13 11.4444 13 11.4444 13 11.4444C13 11.4444 13 11.4444 13 11.4444V11.4444C13 11.4444 13 11.4444 13 11.4444C13 11.4444 13 11.4444 13 11.4444C13 11.4444 13 11.4444 13 11.4444C13 11.4444 13 11.4444 13 11.4444V11.4444V11.4444V11.4444C13 11.4444 13 11.4444 13 11.4444C13 11.4444 13 11.4444 13 11.4444C13 11.4444 13 11.4444 13 11.4444C13 11.4444 13 11.4444 13 11.4444C13 11.4444 13 11.4444 13 11.4444C13 11.4444 13 11.4444 13 11.4444C13 11.4444 13 11.4444 13 11.4444C13 11.4444 13 11.4444 13 11.4444C13 11.4444 13 11.4444 13 11.4444C13 11.4444 13 11.4444 13 11.4444C13 11.4444 13 11.4444 13 11.4444C13 11.4444 13 11.4444 13 11.4444C13 11.4444 13 11.4444 13 11.4444C13 11.4444 13 11.4444 13 11.4444C13 11.4444 13 11.4444 13 11.4444C13 11.4444 13 11.4444 13 11.4444C13 11.4444 13 11.4444 13 11.4444C13 11.4444 13 11.4444 13 11.4444C13 11.4444 13 11.4444 13 11.4444C13 11.4444 13 11.4444 13 11.4444C13 11.4444 13 11.4444 13 11.4444C13 11.4444 13 11.4444 13 11.4444C13 11.4444 13 11.4444 13 11.4444C13 11.4444 13 11.4444 13 11.4444C13 11.4444 13 11.4444 13 11.4444V11.4444V11.4444V11.4444C13 11.4444 13 11.4444 13 11.4444C13 11.4444 13 11.4444 13 11.4444C13 11.4444 13 11.4444 13 11.4444C13 11.4444 13 11.4444 13 11.4444V11.4444C13 11.4444 13 11.4444 13 11.4444C13 11.4444 13 11.4444 13 11.4444V11.4444H9V11.4444C9 11.4444 9 11.4444 9 11.4444C9 11.4444 9 11.4444 9 11.4444V11.4444C9 11.4444 9 11.4444 9 11.4444C9 11.4444 9 11.4444 9 11.4444C9 11.4444 9 11.4444 9 11.4444C9 11.4444 9 11.4444 9 11.4444V11.4444V11.4444V11.4444C9 11.4444 9 11.4444 9 11.4444C9 11.4444 9 11.4444 9 11.4444C9 11.4444 9 11.4444 9 11.4444C9 11.4444 9 11.4444 9 11.4444C9 11.4444 9 11.4444 9 11.4444C9 11.4444 9 11.4444 9 11.4444C9 11.4444 9 11.4444 9 11.4444C9 11.4444 9 11.4444 9 11.4444C9 11.4444 9 11.4444 9 11.4444C9 11.4444 9 11.4444 9 11.4444C9 11.4444 9 11.4444 9 11.4444C9 11.4444 9 11.4444 9 11.4444C9 11.4444 9 11.4444 9 11.4444C9 11.4444 9 11.4444 9 11.4444C9 11.4444 9 11.4444 9 11.4444C9 11.4444 9 11.4444 9 11.4444C9 11.4444 9 11.4444 9 11.4444C9 11.4444 9 11.4444 9 11.4444C9 11.4444 9 11.4444 9 11.4444C9 11.4444 9 11.4444 9 11.4444C9 11.4444 9 11.4444 9 11.4444C9 11.4444 9 11.4444 9 11.4444C9 11.4444 9 11.4444 9 11.4444C9 11.4444 9 11.4444 9 11.4444C9 11.4444 9 11.4444 9 11.4444V11.4444V11.4444V11.4444C9 11.4444 9 11.4444 9 11.4444C9 11.4444 9 11.4444 9 11.4444C9 11.4444 9 11.4444 9 11.4444C9 11.4444 9 11.4444 9 11.4444V11.4444C9 11.4444 9 11.4444 9 11.4444C9 11.4444 9 11.4444 9 11.4444V11.4444H13ZM9 11.4444V21.2222H13V11.4444H9ZM13 21.2222C13 21.2222 13 21.2222 13 21.2222C13 21.2222 13 21.2222 13 21.2222C13 21.2222 13 21.2222 13 21.2222C13 21.2222 13 21.2222 13 21.2222C13 21.2222 13 21.2222 13 21.2222V21.2222C13 21.2222 13 21.2222 13 21.2222V21.2222C13 21.2222 13 21.2222 13 21.2222C13 21.2222 13 21.2222 13 21.2222C13 21.2222 13 21.2222 13 21.2222V21.2222C13 21.2222 13 21.2222 13 21.2222V21.2222C13 21.2222 13 21.2222 13 21.2222C13 21.2222 13 21.2222 13 21.2222C13 21.2222 13 21.2222 13 21.2222C13 21.2222 13 21.2222 13 21.2222C13 21.2222 13 21.2222 13 21.2222H9C9 21.2222 9 21.2222 9 21.2222C9 21.2222 9 21.2222 9 21.2222C9 21.2222 9 21.2222 9 21.2222C9 21.2222 9 21.2222 9 21.2222C9 21.2222 9 21.2222 9 21.2222V21.2222C9 21.2222 9 21.2222 9 21.2222V21.2222C9 21.2222 9 21.2222 9 21.2222C9 21.2222 9 21.2222 9 21.2222C9 21.2222 9 21.2222 9 21.2222V21.2222C9 21.2222 9 21.2222 9 21.2222V21.2222C9 21.2222 9 21.2222 9 21.2222C9 21.2222 9 21.2222 9 21.2222C9 21.2222 9 21.2222 9 21.2222C9 21.2222 9 21.2222 9 21.2222C9 21.2222 9 21.2222 9 21.2222H13ZM5.5 25.6667C7.23163 25.6667 8.8955 25.3587 10.2014 24.7783C10.8518 24.4893 11.5019 24.0933 12.0166 23.5525C12.541 23.0014 13 22.2105 13 21.2222H9C9 20.909 9.15118 20.7611 9.11899 20.7949C9.077 20.8391 8.92171 20.9698 8.57681 21.1231C7.89207 21.4274 6.80593 21.6667 5.5 21.6667V25.6667ZM-2 21.2222C-2 22.2105 -1.54102 23.0014 -1.01657 23.5525C-0.501938 24.0933 0.148227 24.4893 0.798636 24.7783C2.1045 25.3587 3.76837 25.6667 5.5 25.6667V21.6667C4.19407 21.6667 3.10793 21.4274 2.42319 21.1231C2.07829 20.9698 1.923 20.8391 1.88101 20.7949C1.84882 20.7611 2 20.909 2 21.2222H-2ZM-2 21.2222C-2 21.2222 -2 21.2222 -2 21.2222C-2 21.2222 -2 21.2222 -2 21.2222C-2 21.2222 -2 21.2222 -2 21.2222C-2 21.2222 -2 21.2222 -2 21.2222C-2 21.2222 -2 21.2222 -2 21.2222V21.2222C-2 21.2222 -2 21.2222 -2 21.2222V21.2222C-2 21.2222 -2 21.2222 -2 21.2222C-2 21.2222 -2 21.2222 -2 21.2222C-2 21.2222 -2 21.2222 -2 21.2222V21.2222C-2 21.2222 -2 21.2222 -2 21.2222V21.2222C-2 21.2222 -2 21.2222 -2 21.2222C-2 21.2222 -2 21.2222 -2 21.2222C-2 21.2222 -2 21.2222 -2 21.2222C-2 21.2222 -2 21.2222 -2 21.2222C-2 21.2222 -2 21.2222 -2 21.2222H2C2 21.2222 2 21.2222 2 21.2222C2 21.2222 2 21.2222 2 21.2222C2 21.2222 2 21.2222 2 21.2222C2 21.2222 2 21.2222 2 21.2222C2 21.2222 2 21.2222 2 21.2222V21.2222C2 21.2222 2 21.2222 2 21.2222V21.2222C2 21.2222 2 21.2222 2 21.2222C2 21.2222 2 21.2222 2 21.2222C2 21.2222 2 21.2222 2 21.2222V21.2222C2 21.2222 2 21.2222 2 21.2222V21.2222C2 21.2222 2 21.2222 2 21.2222C2 21.2222 2 21.2222 2 21.2222C2 21.2222 2 21.2222 2 21.2222C2 21.2222 2 21.2222 2 21.2222C2 21.2222 2 21.2222 2 21.2222H-2ZM2 21.2222V11.4444H-2V21.2222H2Z" fill="black" mask="url(#path-1-inside-1_1964_18298)"/>
</g>
<path fill-rule="evenodd" clip-rule="evenodd" d="M18 15C20.2091 15 22 13.2091 22 11C22 10.648 21.8015 9.89231 21.2553 8.73999C20.7442 7.66178 20.0443 6.47041 19.3171 5.33807C18.8645 4.63329 18.4106 3.96558 18 3.38033C17.5894 3.96558 17.1355 4.63329 16.6829 5.33807C15.9557 6.47041 15.2558 7.66178 14.7447 8.73999C14.1985 9.89231 14 10.648 14 11C14 13.2091 15.7909 15 18 15ZM16.7597 1.67181C15.0027 4.12331 12 8.65579 12 11C12 14.3137 14.6863 17 18 17C21.3137 17 24 14.3137 24 11C24 8.65579 20.9973 4.12331 19.2403 1.67181C18.5136 0.657938 18 0 18 0C18 0 17.4864 0.657938 16.7597 1.67181Z" fill="black"/>
</svg>
