<svg width="24" height="24" viewBox="0 0 24 24" fill="none" xmlns="http://www.w3.org/2000/svg">
<path fill-rule="evenodd" clip-rule="evenodd" d="M23.7433 24H1C2.00476 19.4462 6.71396 16 12.3716 16C18.0293 16 22.7385 19.4462 23.7433 24Z" fill="#8F8F92"/>
<path d="M18.1246 5.02642C17.6057 3.90185 16.5517 3.09774 15.3137 3.06281C14.8684 3.04992 14.4405 3.12838 14.0498 3.28321C14.0669 2.8624 14.0006 2.43415 13.8421 2.02059C13.397 0.864302 12.2893 0.133985 11.0568 0.0157367C10.5113 -0.0374317 10.0463 0.0477977 9.64354 0.216C9.45214 0.294298 9.45713 0.577855 9.65417 0.644861C10.5524 0.950005 11.3486 1.62714 11.8306 2.76879C11.8424 2.80069 11.8566 2.83001 11.8685 2.86256C11.6666 2.57433 11.4168 2.31396 11.1158 2.09726C10.1847 1.42753 8.94336 1.37693 7.89628 1.8411C7.27312 2.11644 6.86228 2.50328 6.57968 2.93857C6.48929 3.07697 6.61448 3.25322 6.77527 3.20876C7.73354 2.95565 8.81122 3.09195 9.8644 3.83823C10.3534 4.18559 10.7189 4.58064 10.9804 5.00096C10.6589 4.67438 10.2221 4.45447 9.73229 4.40535C8.97731 4.3372 8.25347 4.74304 7.83859 5.37637C7.67136 5.62931 7.58227 5.88066 7.54505 6.12071C7.51911 6.28569 7.71598 6.40023 7.84343 6.2902C8.27488 5.91481 8.86567 5.69665 9.60535 5.75917C10.214 5.81121 10.6906 6.03419 11.0421 6.35594C10.9943 6.40186 6.18766 10.6899 6 20.0038H7.95136C7.5331 9.8708 12.2198 7.19816 12.221 7.18125C12.6106 7.41067 12.9495 7.77414 13.184 8.29629C13.4901 8.97538 13.4796 9.60952 13.2649 10.1409C13.2035 10.2957 13.3746 10.4441 13.521 10.3656C13.7382 10.2511 13.9451 10.0811 14.1303 9.83765C14.5895 9.23461 14.7356 8.41793 14.419 7.73208C14.2112 7.28354 13.8613 6.94571 13.4434 6.74979C13.9291 6.85645 14.4234 7.07057 14.9093 7.41792C15.947 8.15306 16.4363 9.10556 16.5217 10.0756C16.5393 10.2579 16.7673 10.3283 16.877 10.1816C17.1791 9.77629 17.3946 9.27171 17.4465 8.61353C17.5372 7.47027 17.0818 6.31447 16.1418 5.66021C15.8367 5.44819 15.5069 5.29787 15.1699 5.20363C15.2027 5.20379 15.2353 5.20428 15.2706 5.20782C16.4908 5.28403 17.3881 5.79799 17.9756 6.53152C18.1105 6.70294 18.3966 6.61127 18.4051 6.39264C18.4246 5.96473 18.3494 5.51154 18.1247 5.02625L18.1246 5.02642Z" fill="#8F8F92"/>
</svg>
