<svg width="24" height="24" viewBox="0 0 24 24" fill="none" xmlns="http://www.w3.org/2000/svg">
<g clip-path="url(#clip0_4675_4293)">
<path fill-rule="evenodd" clip-rule="evenodd" d="M12 10C14.2091 10 16 8.20914 16 6C16 3.79086 14.2091 2 12 2C9.79086 2 8 3.79086 8 6C8 8.20914 9.79086 10 12 10ZM12 12C15.3137 12 18 9.31371 18 6C18 2.68629 15.3137 0 12 0C8.68629 0 6 2.68629 6 6C6 9.31371 8.68629 12 12 12Z" fill="black"/>
<path fill-rule="evenodd" clip-rule="evenodd" d="M6.07336 12.4339C8.51444 11.1254 10.9299 11 12.0002 11C14.1287 11 15.6385 11.3998 16.6442 11.8309C17.1455 12.0457 17.5165 12.2662 17.7726 12.4435C17.9005 12.532 17.9994 12.6095 18.0712 12.6699C18.1071 12.7 18.1362 12.7259 18.1588 12.7467C18.1701 12.7571 18.1798 12.7662 18.1879 12.7739L18.1988 12.7845L18.2034 12.789L18.2055 12.791L18.2064 12.792C18.2069 12.7925 18.2074 12.7929 17.5002 13.5L18.2074 12.7929C18.5979 13.1835 18.5979 13.8166 18.2073 14.2072C17.8206 14.5938 17.196 14.5976 16.8047 14.2185C16.8019 14.216 16.7953 14.2101 16.7848 14.2013C16.759 14.1796 16.7094 14.1399 16.6342 14.0878C16.484 13.9839 16.23 13.8293 15.8563 13.6692C15.112 13.3502 13.8718 13 12.0002 13C11.0706 13 9.03841 13.1137 7.01822 14.1966C5.05145 15.2508 3.00814 17.2685 2.04004 21.2489C2.03639 21.3501 2.05351 21.5341 2.13942 21.6734C2.1788 21.7373 2.24025 21.806 2.35887 21.8656C2.48408 21.9285 2.71195 22 3.10496 22H10.8094C11.3617 22 11.8094 22.4478 11.8094 23C11.8094 23.5523 11.3617 24 10.8094 24H3.10496C1.80003 24 0.916012 23.4997 0.437156 22.7233C0.0100155 22.0308 0.0175494 21.2946 0.0578479 20.9655L0.0646877 20.9096L0.0777521 20.8549C1.17122 16.2731 3.59038 13.7648 6.07336 12.4339ZM16.7944 14.2084C16.7942 14.2082 16.7941 14.2081 16.794 14.208C16.794 14.208 16.794 14.208 16.794 14.208L16.7944 14.2084Z" fill="black"/>
<path fill-rule="evenodd" clip-rule="evenodd" d="M14.6985 18.8817C14.3513 19.1248 14 19.5633 14 20.5C14 21.0909 14.2625 21.4163 14.6395 21.6425C15.0687 21.9 15.6275 22 16 22C16.5523 22 17 22.4477 17 23C17 23.5523 16.5523 24 16 24C15.3725 24 14.4313 23.85 13.6105 23.3575C12.7375 22.8337 12 21.9091 12 20.5C12 18.9367 12.6487 17.8752 13.5515 17.2433C14.3966 16.6518 15.369 16.5 16 16.5H22C22.5523 16.5 23 16.9477 23 17.5C23 18.0523 22.5523 18.5 22 18.5H16C15.631 18.5 15.1034 18.5982 14.6985 18.8817Z" fill="black"/>
<path fill-rule="evenodd" clip-rule="evenodd" d="M19.2929 13.7929C19.6834 13.4024 20.3166 13.4024 20.7071 13.7929L23.7071 16.7929C24.0976 17.1834 24.0976 17.8166 23.7071 18.2071L20.7071 21.2071C20.3166 21.5976 19.6834 21.5976 19.2929 21.2071C18.9024 20.8166 18.9024 20.1834 19.2929 19.7929L21.5858 17.5L19.2929 15.2071C18.9024 14.8166 18.9024 14.1834 19.2929 13.7929Z" fill="black"/>
</g>
<defs>
<clipPath id="clip0_4675_4293">
<rect width="24" height="24" fill="white"/>
</clipPath>
</defs>
</svg>
