<svg width="24" height="25" viewBox="0 0 24 25" fill="none" xmlns="http://www.w3.org/2000/svg">
<path fill-rule="evenodd" clip-rule="evenodd" d="M8.3765 20.4294C8.84716 20.9001 8.84716 21.6632 8.3765 22.1338C7.90585 22.6045 7.14278 22.6045 6.67212 22.1338L0.99922 16.4609L6.67212 10.788C7.14278 10.3174 7.90585 10.3174 8.3765 10.788C8.84716 11.2587 8.84716 12.0217 8.3765 12.4924L5.43405 15.4349L12.9472 15.4349C13.6128 15.4349 14.1523 15.9744 14.1523 16.64C14.1523 17.3056 13.6128 17.8452 12.9472 17.8452L5.79227 17.8452L8.3765 20.4294Z" fill="#8F8F92"/>
<path fill-rule="evenodd" clip-rule="evenodd" d="M15.7751 12.4294C15.3044 12.9001 15.3044 13.6632 15.7751 14.1338C16.2457 14.6045 17.0088 14.6045 17.4794 14.1338L23.1523 8.46092L17.4794 2.78802C17.0088 2.31737 16.2457 2.31737 15.7751 2.78802C15.3044 3.25867 15.3044 4.02175 15.7751 4.4924L18.5383 7.25566L11.2044 7.25566C10.5388 7.25566 9.99922 7.79523 9.99922 8.46083C9.99922 9.12644 10.5388 9.66601 11.2044 9.66601L18.5385 9.66601L15.7751 12.4294Z" fill="#8F8F92"/>
</svg>
