<svg width="24" height="24" viewBox="0 0 24 24" fill="none" xmlns="http://www.w3.org/2000/svg">
<path fill-rule="evenodd" clip-rule="evenodd" d="M21 2H3C2.44772 2 2 2.44772 2 3V21C2 21.5523 2.44772 22 3 22H21C21.5523 22 22 21.5523 22 21V3C22 2.44772 21.5523 2 21 2ZM3 0C1.34315 0 0 1.34315 0 3V21C0 22.6569 1.34315 24 3 24H21C22.6569 24 24 22.6569 24 21V3C24 1.34315 22.6569 0 21 0H3Z" fill="black"/>
<path d="M14.8073 7.90669H10.9533L10.4909 10.5355C11.259 10.1244 11.9675 9.91886 12.6166 9.91886C13.1359 9.91886 13.62 10.0162 14.069 10.211C14.5233 10.4057 14.9209 10.6761 15.2617 11.0223C15.6024 11.3631 15.8702 11.7688 16.0649 12.2394C16.2596 12.7099 16.357 13.2157 16.357 13.7566C16.357 14.5409 16.1812 15.2549 15.8296 15.8986C15.478 16.5423 14.9696 17.0534 14.3043 17.432C13.6444 17.8107 12.8817 18 12.0162 18C11.048 18 10.261 17.8215 9.65517 17.4645C9.05477 17.1075 8.62745 16.6991 8.37323 16.2394C8.12441 15.7742 8 15.3685 8 15.0223C8 14.8114 8.08654 14.6112 8.25963 14.4219C8.43813 14.2326 8.65991 14.1379 8.92495 14.1379C9.37931 14.1379 9.71738 14.4003 9.93915 14.9249C10.1555 15.4064 10.4476 15.7823 10.8154 16.0527C11.1832 16.3178 11.5943 16.4503 12.0487 16.4503C12.4652 16.4503 12.8303 16.3421 13.144 16.1258C13.4577 15.9094 13.6984 15.6119 13.8661 15.2333C14.0392 14.8546 14.1258 14.4246 14.1258 13.9432C14.1258 13.4239 14.0338 12.9804 13.8499 12.6126C13.666 12.2448 13.4199 11.9716 13.1116 11.7931C12.8032 11.6092 12.4598 11.5172 12.0811 11.5172C11.616 11.5172 11.2833 11.574 11.0832 11.6876C10.883 11.8012 10.5936 12.0014 10.215 12.288C9.84179 12.5693 9.53347 12.7099 9.29006 12.7099C9.02502 12.7099 8.78972 12.6153 8.58418 12.426C8.37863 12.2312 8.27586 12.0122 8.27586 11.7688C8.27586 11.7417 8.30561 11.5578 8.36511 11.217L9.04665 7.33063C9.12238 6.86545 9.26302 6.52738 9.46856 6.31643C9.6741 6.10548 10.0095 6 10.4746 6H14.7586C15.6024 6 16.0243 6.32184 16.0243 6.96552C16.0243 7.24679 15.9216 7.47397 15.716 7.64706C15.5105 7.82015 15.2076 7.90669 14.8073 7.90669Z" fill="black"/>
</svg>
