<svg width="24" height="24" viewBox="0 0 24 24" fill="none" xmlns="http://www.w3.org/2000/svg">
<path d="M19.5471 3.42469H17.336V1.11183C17.336 0.714318 17.1298 0.34731 16.795 0.149065C16.4602 -0.0496884 16.0478 -0.0496884 15.713 0.149065C15.3782 0.347819 15.172 0.714827 15.172 1.11183V3.42469H8.86714V1.11183C8.86714 0.714318 8.66092 0.34731 8.32612 0.149065C7.99132 -0.0496884 7.57888 -0.0496884 7.24408 0.149065C6.90928 0.347819 6.70306 0.714827 6.70306 1.11183V3.42469H4.45342C3.80311 3.4257 3.17999 3.69206 2.71958 4.1648C2.26016 4.63754 2.00102 5.27853 2.00003 5.94647V21.465C1.99657 22.136 2.25324 22.781 2.71414 23.2568C3.17455 23.7326 3.80063 24 4.45342 24H19.5466C20.1964 24 20.82 23.7352 21.28 23.2629C21.7399 22.7907 21.9985 22.1507 22 21.4828V5.94698C21.999 5.27853 21.7399 4.63805 21.2805 4.1648C20.8205 3.69206 20.1969 3.42621 19.5471 3.42469ZM4.45391 5.64859H6.70405V6.65354C6.70405 7.05105 6.91027 7.41806 7.24457 7.6163C7.57937 7.81506 7.99181 7.81506 8.32661 7.6163C8.66141 7.41755 8.86764 7.05054 8.86764 6.65303V5.64808H15.1725V6.65303C15.1725 7.05054 15.3787 7.41755 15.7135 7.6163C16.0483 7.81506 16.4607 7.81506 16.7955 7.6163C17.1303 7.41755 17.3365 7.05054 17.3365 6.65303V5.64808H19.5476C19.7073 5.64808 19.8374 5.78126 19.8374 5.94596V8.87694H4.16412V5.94596C4.16412 5.86717 4.19478 5.79143 4.24868 5.73551C4.30308 5.6796 4.37677 5.64859 4.45342 5.64859H4.45391ZM19.5471 21.7761H4.45391C4.37726 21.7771 4.30358 21.7471 4.24918 21.6917C4.19428 21.6363 4.16412 21.5611 4.16412 21.4828V11.1014H19.8369V21.465C19.8419 21.5468 19.8132 21.6266 19.7583 21.6856C19.7034 21.7446 19.6267 21.7776 19.5471 21.7761Z" fill="#8F8F92"/>
</svg>
