<svg width="24" height="24" viewBox="0 0 24 24" fill="none" xmlns="http://www.w3.org/2000/svg">
<g clip-path="url(#clip0_1964_18295)">
<path fill-rule="evenodd" clip-rule="evenodd" d="M16.0199 7.65381L23.6805 14.7672C24.0852 15.143 24.1086 15.7757 23.7328 16.1804C23.357 16.5851 22.7243 16.6086 22.3195 16.2328L15.9801 10.3462L7.95443 17.3686L0.292893 9.70709C-0.0976311 9.31656 -0.0976311 8.6834 0.292893 8.29287C0.683417 7.90235 1.31658 7.90235 1.70711 8.29287L8.04557 14.6313L16.0199 7.65381Z" fill="black"/>
<g style="mix-blend-mode:multiply">
<path d="M7 2C7 1.44772 7.44772 1 8 1C8.55228 1 9 1.44772 9 2V10C9 10.5523 8.55228 11 8 11C7.44772 11 7 10.5523 7 10V2Z" fill="black"/>
</g>
<path fill-rule="evenodd" clip-rule="evenodd" d="M3.29289 5.79289C3.68342 5.40237 4.31658 5.40237 4.70711 5.79289L8 9.08579L11.2929 5.79289C11.6834 5.40237 12.3166 5.40237 12.7071 5.79289C13.0976 6.18342 13.0976 6.81658 12.7071 7.20711L8 11.9142L3.29289 7.20711C2.90237 6.81658 2.90237 6.18342 3.29289 5.79289Z" fill="black"/>
<g style="mix-blend-mode:multiply">
<path d="M17 23C17 23.5523 16.5523 24 16 24C15.4477 24 15 23.5523 15 23L15 15C15 14.4477 15.4477 14 16 14C16.5523 14 17 14.4477 17 15L17 23Z" fill="black"/>
</g>
<path fill-rule="evenodd" clip-rule="evenodd" d="M20.7071 19.2071C20.3166 19.5976 19.6834 19.5976 19.2929 19.2071L16 15.9142L12.7071 19.2071C12.3166 19.5976 11.6834 19.5976 11.2929 19.2071C10.9024 18.8166 10.9024 18.1834 11.2929 17.7929L16 13.0858L20.7071 17.7929C21.0976 18.1834 21.0976 18.8166 20.7071 19.2071Z" fill="black"/>
</g>
<defs>
<clipPath id="clip0_1964_18295">
<rect width="24" height="24" fill="white"/>
</clipPath>
</defs>
</svg>
