<svg width="24" height="24" viewBox="0 0 24 24" fill="none" xmlns="http://www.w3.org/2000/svg">
<mask id="path-1-inside-1_1964_18310" fill="white">
<rect x="9" y="0.564941" width="6" height="6" rx="1"/>
</mask>
<rect x="9" y="0.564941" width="6" height="6" rx="1" stroke="#1F1F1F" stroke-width="4" mask="url(#path-1-inside-1_1964_18310)"/>
<mask id="path-2-inside-2_1964_18310" fill="white">
<rect x="9" y="8.56494" width="6" height="6" rx="1"/>
</mask>
<rect x="9" y="8.56494" width="6" height="6" rx="1" stroke="#1F1F1F" stroke-width="4" mask="url(#path-2-inside-2_1964_18310)"/>
<mask id="path-3-inside-3_1964_18310" fill="white">
<rect x="9" y="17.5649" width="6" height="6" rx="1"/>
</mask>
<rect x="9" y="17.5649" width="6" height="6" rx="1" stroke="#1F1F1F" stroke-width="4" mask="url(#path-3-inside-3_1964_18310)"/>
<mask id="path-4-inside-4_1964_18310" fill="white">
<rect y="0.564941" width="6" height="6" rx="1"/>
</mask>
<rect y="0.564941" width="6" height="6" rx="1" stroke="#1F1F1F" stroke-width="4" mask="url(#path-4-inside-4_1964_18310)"/>
<mask id="path-5-inside-5_1964_18310" fill="white">
<rect y="8.56494" width="6" height="6" rx="1"/>
</mask>
<rect y="8.56494" width="6" height="6" rx="1" stroke="#1F1F1F" stroke-width="4" mask="url(#path-5-inside-5_1964_18310)"/>
<mask id="path-6-inside-6_1964_18310" fill="white">
<rect y="17.5649" width="6" height="6" rx="1"/>
</mask>
<rect y="17.5649" width="6" height="6" rx="1" stroke="#1F1F1F" stroke-width="4" mask="url(#path-6-inside-6_1964_18310)"/>
<mask id="path-7-inside-7_1964_18310" fill="white">
<rect x="18" y="0.564941" width="6" height="6" rx="1"/>
</mask>
<rect x="18" y="0.564941" width="6" height="6" rx="1" stroke="#1F1F1F" stroke-width="4" mask="url(#path-7-inside-7_1964_18310)"/>
<mask id="path-8-inside-8_1964_18310" fill="white">
<rect x="18" y="8.56494" width="6" height="6" rx="1"/>
</mask>
<rect x="18" y="8.56494" width="6" height="6" rx="1" stroke="#1F1F1F" stroke-width="4" mask="url(#path-8-inside-8_1964_18310)"/>
<mask id="path-9-inside-9_1964_18310" fill="white">
<rect x="18" y="17.5649" width="6" height="6" rx="1"/>
</mask>
<rect x="18" y="17.5649" width="6" height="6" rx="1" stroke="#1F1F1F" stroke-width="4" mask="url(#path-9-inside-9_1964_18310)"/>
</svg>
