<svg width="24" height="24" viewBox="0 0 24 24" fill="none" xmlns="http://www.w3.org/2000/svg">
<path fill-rule="evenodd" clip-rule="evenodd" d="M21 2H3C2.44772 2 2 2.44772 2 3V21C2 21.5523 2.44772 22 3 22H21C21.5523 22 22 21.5523 22 21V3C22 2.44772 21.5523 2 21 2ZM3 0C1.34315 0 0 1.34315 0 3V21C0 22.6569 1.34315 24 3 24H21C22.6569 24 24 22.6569 24 21V3C24 1.34315 22.6569 0 21 0H3Z" fill="black"/>
<path d="M12.4993 16.7921V15.3139H8.50993C8.00662 15.3139 7.62781 15.2 7.37351 14.9722C7.1245 14.7444 7 14.4344 7 14.0424C7 13.9417 7.01854 13.8411 7.05563 13.7404C7.09272 13.6344 7.14834 13.5258 7.22252 13.4146C7.29669 13.298 7.37351 13.1868 7.45298 13.0808C7.53245 12.9748 7.63046 12.845 7.74702 12.6914L11.9589 7.05695C12.2344 6.68609 12.4596 6.41854 12.6344 6.2543C12.8146 6.08477 13.0291 6 13.2781 6C14.0834 6 14.4861 6.46093 14.4861 7.38278V13.5338H14.8278C15.2358 13.5338 15.5616 13.5894 15.8053 13.7007C16.0543 13.8119 16.1788 14.0556 16.1788 14.4318C16.1788 14.7391 16.0781 14.9642 15.8768 15.1073C15.6755 15.245 15.3735 15.3139 14.9709 15.3139H14.4861V16.7921C14.4861 17.2 14.396 17.5046 14.2159 17.706C14.0358 17.902 13.7947 18 13.4927 18C13.196 18 12.955 17.8993 12.7695 17.698C12.5894 17.4914 12.4993 17.1894 12.4993 16.7921ZM9.08212 13.5338H12.4993V8.91656L9.08212 13.5338Z" fill="black"/>
</svg>
