<svg width="24" height="24" viewBox="0 0 24 24" fill="none" xmlns="http://www.w3.org/2000/svg">
<path d="M22.4125 8.24274C22.1806 7.65084 21.4913 7.35084 20.8725 7.57255C20.2535 7.79441 19.9404 8.45403 20.1721 9.04609C22.8458 15.873 16.1286 22.6371 8.91102 20.5187L9.04166 20.2442C9.42112 19.4462 8.75754 18.5457 7.83702 18.631L4.67345 18.9247C3.75757 19.0096 3.28121 20.0143 3.81573 20.7294L5.66303 23.2037C6.19822 23.9206 7.34475 23.8127 7.72543 23.0123L7.91335 22.617C17.1146 25.5812 25.8211 16.9468 22.4125 8.24267L22.4125 8.24274Z" fill="#8F8F92"/>
<path d="M14.2647 3.72907L14.1341 4.00358C13.753 4.80541 14.4236 5.70176 15.3387 5.61682L18.5019 5.32311C19.414 5.23851 19.8969 4.23718 19.36 3.51846L17.5123 1.04359C16.9775 0.327034 15.8306 0.434648 15.4499 1.23498L15.2615 1.63101C6.2073 -1.28606 -2.69541 7.17279 0.763261 16.0045C0.995127 16.5964 1.6845 16.8967 2.30327 16.675C2.92187 16.4531 3.2354 15.7935 3.00369 15.2011C0.300053 8.29755 7.13017 1.63512 14.2647 3.72892L14.2647 3.72907Z" fill="#8F8F92"/>
</svg>
