<svg width="24" height="24" viewBox="0 0 24 24" fill="none" xmlns="http://www.w3.org/2000/svg">
<path fill-rule="evenodd" clip-rule="evenodd" d="M12 22C17.5228 22 22 17.5228 22 12C22 6.47715 17.5228 2 12 2C6.47715 2 2 6.47715 2 12C2 17.5228 6.47715 22 12 22ZM12 24C18.6274 24 24 18.6274 24 12C24 5.37258 18.6274 0 12 0C5.37258 0 0 5.37258 0 12C0 18.6274 5.37258 24 12 24Z" fill="black"/>
<path fill-rule="evenodd" clip-rule="evenodd" d="M19.9999 20.0001L11.9999 12.0001L12.707 11.293L20.707 19.293L19.9999 20.0001Z" fill="black"/>
<path fill-rule="evenodd" clip-rule="evenodd" d="M23.3139 12L0.686523 12V11L23.3139 11V12Z" fill="black"/>
<path fill-rule="evenodd" clip-rule="evenodd" d="M4.00008 20.0001L20.0001 4.00008L19.293 3.29297L3.29297 19.293L4.00008 20.0001Z" fill="black"/>
</svg>
