<svg width="24" height="24" viewBox="0 0 24 24" fill="none" xmlns="http://www.w3.org/2000/svg">
<g clip-path="url(#clip0_1964_18297)">
<path fill-rule="evenodd" clip-rule="evenodd" d="M24 24H0V22H24V24Z" fill="black"/>
<path fill-rule="evenodd" clip-rule="evenodd" d="M3 21C2.44772 21 2 20.5523 2 20L2 18C2 17.4477 2.44772 17 3 17C3.55228 17 4 17.4477 4 18L4 20C4 20.5523 3.55228 21 3 21Z" fill="black"/>
<path fill-rule="evenodd" clip-rule="evenodd" d="M7 21C6.44772 21 6 20.5523 6 20L6 13C6 12.4477 6.44771 12 7 12C7.55228 12 8 12.4477 8 13L8 20C8 20.5523 7.55228 21 7 21Z" fill="black"/>
<path fill-rule="evenodd" clip-rule="evenodd" d="M11 21C10.4477 21 10 20.5523 10 20L10 9C10 8.44771 10.4477 8 11 8C11.5523 8 12 8.44771 12 9L12 20C12 20.5523 11.5523 21 11 21Z" fill="black"/>
<path fill-rule="evenodd" clip-rule="evenodd" d="M15 21C14.4477 21 14 20.5523 14 20L14 11C14 10.4477 14.4477 10 15 10C15.5523 10 16 10.4477 16 11L16 20C16 20.5523 15.5523 21 15 21Z" fill="black"/>
<path fill-rule="evenodd" clip-rule="evenodd" d="M19 21C18.4477 21 18 20.5523 18 20L18 1C18 0.447716 18.4477 -1.95703e-08 19 -4.37114e-08C19.5523 -6.78525e-08 20 0.447716 20 1L20 20C20 20.5523 19.5523 21 19 21Z" fill="black"/>
</g>
<defs>
<clipPath id="clip0_1964_18297">
<rect width="24" height="24" fill="white"/>
</clipPath>
</defs>
</svg>
