<svg viewBox="0 0 287.13 51.48" xmlns="http://www.w3.org/2000/svg"><g fill="#fff"><path d="m10.15 51h-10.15v-50.28h10.15v22.46l18.15-22.46h13.24l-21.81 25.2 21.81 25.08h-13.17l-18.22-22.34z"/><path d="m81.5 51-3.24-9.43h-19.58l-3.24 9.43h-10.73l17.79-50.42h12l17.73 50.42zm-20.16-17.23h14.33l-7.2-21z"/><path d="m131.76.72v7.78l-22.61 34.7h22.61v7.8h-34.27v-7.8l22.6-34.7h-22.6v-7.78z"/><path d="m150.91 31v20h-10.15v-50.28h18.5q8.71 0 13.43 4.36a14.07 14.07 0 0 1 4.72 10.76 15.12 15.12 0 0 1 -2.88 8.86q-2.88 4.1-9.07 5.62l12.81 20.68h-12l-12-20zm0-22.46v14.64h8.35a8 8 0 0 0 5.83-2 7.18 7.18 0 0 0 2-5.36 7.18 7.18 0 0 0 -2-5.36 8 8 0 0 0 -5.83-2z"/><path d="m210.38 51.48a25.1 25.1 0 0 1 -18.29-7.27q-7.42-7.27-7.42-18.47t7.45-18.47a26.59 26.59 0 0 1 36.54 0q7.42 7.27 7.42 18.47t-7.42 18.47a25.1 25.1 0 0 1 -18.28 7.27zm11.09-13.79q4.25-4.5 4.25-12t-4.25-12a16 16 0 0 0 -22.21 0q-4.28 4.5-4.28 12t4.28 12a16 16 0 0 0 22.21 0z"/><path d="m277 .58h10.15v50.42h-10.15l-22.77-34.87v34.87h-10.15v-50.42h10.15l22.77 34.84z"/></g></svg>