<svg width="24" height="22" viewBox="0 0 24 22" fill="none" xmlns="http://www.w3.org/2000/svg">
<path d="M22.5 0.5H1.5C0.6735 0.5 0 1.1735 0 2V10.25C0 16.454 5.046 21.5 11.25 21.5H12.75C18.954 21.5 24 16.454 24 10.25V2C24 1.1735 23.328 0.5 22.5 0.5ZM19.0605 9.0605L13.0605 15.0605C12.768 15.353 12.384 15.5 12 15.5C11.616 15.5 11.232 15.353 10.9395 15.0605L4.9395 9.0605C4.353 8.474 4.353 7.526 4.9395 6.9395C5.526 6.353 6.474 6.353 7.0605 6.9395L12 11.879L16.9395 6.9395C17.526 6.353 18.474 6.353 19.0605 6.9395C19.647 7.526 19.647 8.474 19.0605 9.0605Z" fill="black"/>
</svg>
