<svg width="24" height="24" viewBox="0 0 24 24" fill="none" xmlns="http://www.w3.org/2000/svg">
<path d="M23.9984 12.1808C23.9384 10.741 22.7385 9.60104 21.2686 9.63104C20.6086 9.66104 20.0087 9.93102 19.5587 10.351C17.5189 8.94109 15.0891 8.19115 12.5993 8.13115L13.7692 2.52158L17.6389 3.30152C17.7589 4.29144 18.6288 5.01139 19.6187 4.8914C20.6086 4.77141 21.3286 3.90147 21.2086 2.91155C21.0886 1.92162 20.2187 1.20167 19.2288 1.32167C18.6588 1.38166 18.1488 1.71164 17.8789 2.1916L13.4692 1.32167C13.1692 1.26167 12.8692 1.44166 12.8092 1.74163L11.4893 8.01116C8.96952 8.04116 6.53971 8.8211 4.43986 10.231C3.38994 9.24107 1.71007 9.27107 0.720145 10.351C-0.269781 11.4009 -0.239783 13.0808 0.840136 14.0707C1.05012 14.2507 1.2901 14.4307 1.56008 14.5507C1.53008 14.8207 1.53008 15.0906 1.56008 15.3306C1.56008 19.3803 6.26973 22.6801 12.0893 22.6801C17.9089 22.6801 22.6185 19.4103 22.6185 15.3306C22.6485 15.0606 22.6485 14.7907 22.6185 14.5507C23.4584 14.1307 24.0284 13.2008 23.9984 12.1808V12.1808ZM5.90975 14.0107C5.90975 13.0208 6.71969 12.2108 7.70962 12.2108C8.69954 12.2108 9.50948 13.0208 9.50948 14.0107C9.50948 15.0006 8.69954 15.8106 7.70962 15.8106C6.71969 15.8106 5.90975 15.0006 5.90975 14.0107ZM16.409 18.9903C15.1191 19.9503 13.5592 20.4602 11.9693 20.3702C10.3794 20.4302 8.78954 19.9503 7.52963 18.9903C7.34965 18.7804 7.37964 18.4804 7.58963 18.3004C7.76961 18.1504 8.0096 18.1504 8.21958 18.3004C9.2995 19.0803 10.6194 19.5003 11.9693 19.4403C13.3192 19.5003 14.6391 19.1403 15.749 18.3304C15.959 18.1504 16.259 18.1504 16.469 18.3304C16.6489 18.5404 16.6489 18.8403 16.469 19.0503V18.9903H16.409ZM16.109 15.9006C15.1191 15.9006 14.3091 15.0906 14.3091 14.1007C14.3091 13.1108 15.1191 12.3008 16.109 12.3008C17.0989 12.3008 17.9089 13.1108 17.9089 14.1007C17.9388 15.0906 17.1889 15.9306 16.169 15.9606C16.139 15.9606 16.109 15.9606 16.079 15.9606L16.109 15.9006Z" fill="black"/>
</svg>
