<svg width="24" height="24" viewBox="0 0 24 24" fill="none" xmlns="http://www.w3.org/2000/svg">
<g clip-path="url(#clip0_3011_19890)">
<path d="M21.534 7.11301C22.51 6.42001 23.331 5.55501 24 4.559V4.558C23.107 4.94901 22.157 5.20901 21.165 5.33501C22.185 4.726 22.964 3.769 23.33 2.616C22.379 3.183 21.329 3.583 20.21 3.807C19.307 2.845 18.02 2.25 16.616 2.25C13.892 2.25 11.699 4.461 11.699 7.17101C11.699 7.56101 11.732 7.93601 11.813 8.29301C7.72301 8.09301 4.10301 6.13301 1.671 3.146C1.247 3.883 0.997002 4.726 0.997002 5.63301C0.997002 7.33701 1.874 8.84701 3.18301 9.72201C2.392 9.70701 1.617 9.47701 0.960002 9.11601V9.17001C0.960002 11.561 2.665 13.547 4.90201 14.005C4.50101 14.115 4.06501 14.167 3.61201 14.167C3.29701 14.167 2.97901 14.149 2.681 14.083C3.31801 16.031 5.12801 17.464 7.27801 17.511C5.60401 18.82 3.47801 19.609 1.177 19.609C0.774001 19.609 0.387001 19.591 0 19.542C2.18 20.947 4.76201 21.75 7.54801 21.75C16.231 21.75 21.89 14.506 21.534 7.11301V7.11301Z" fill="black"/>
</g>
<defs>
<clipPath id="clip0_3011_19890">
<rect width="24" height="24" fill="white"/>
</clipPath>
</defs>
</svg>
